<svg width="31" height="31" viewBox="0 0 31 31" fill="none" xmlns="http://www.w3.org/2000/svg">
<g clip-path="url(#clip0_885_104)">
<path fill-rule="evenodd" clip-rule="evenodd" d="M21.9128 12.2895C21.9128 13.7479 21.3335 15.1465 20.3022 16.1778C19.271 17.209 17.8723 17.7884 16.4139 17.7884C14.9555 17.7884 13.5569 17.209 12.5256 16.1778C11.4944 15.1465 10.915 13.7479 10.915 12.2895C10.915 10.8311 11.4944 9.43242 12.5256 8.40118C13.5569 7.36993 14.9555 6.79059 16.4139 6.79059C17.8723 6.79059 19.271 7.36993 20.3022 8.40118C21.3335 9.43242 21.9128 10.8311 21.9128 12.2895ZM19.1634 12.2895C19.1634 13.0187 18.8737 13.718 18.3581 14.2336C17.8425 14.7493 17.1431 15.0389 16.4139 15.0389C15.6847 15.0389 14.9854 14.7493 14.4698 14.2336C13.9542 13.718 13.6645 13.0187 13.6645 12.2895C13.6645 11.5603 13.9542 10.8609 14.4698 10.3453C14.9854 9.82971 15.6847 9.54003 16.4139 9.54003C17.1431 9.54003 17.8425 9.82971 18.3581 10.3453C18.8737 10.8609 19.1634 11.5603 19.1634 12.2895Z" fill="black"/>
<path fill-rule="evenodd" clip-rule="evenodd" d="M16.4139 1.29169C8.0625 1.29169 1.29199 8.0622 1.29199 16.4136C1.29199 24.7651 8.0625 31.5356 16.4139 31.5356C24.7654 31.5356 31.5359 24.7651 31.5359 16.4136C31.5359 8.0622 24.7654 1.29169 16.4139 1.29169ZM4.04144 16.4136C4.04144 19.2868 5.02162 21.9318 6.66441 24.0324C7.81812 22.5173 9.30649 21.2894 11.0133 20.4448C12.72 19.6001 14.599 19.1614 16.5033 19.1631C18.383 19.1613 20.2383 19.5886 21.9279 20.4124C23.6174 21.2362 25.0966 22.4348 26.2528 23.9169C27.444 22.3546 28.246 20.5312 28.5925 18.5975C28.939 16.6638 28.82 14.6753 28.2455 12.7967C27.6709 10.9181 26.6573 9.20328 25.2884 7.79418C23.9196 6.38507 22.2349 5.32218 20.3737 4.69345C18.5125 4.06472 16.5283 3.88822 14.5854 4.17857C12.6424 4.46891 10.7965 5.21775 9.20046 6.36311C7.60437 7.50848 6.30397 9.01745 5.40685 10.7652C4.50973 12.5129 4.04169 14.4491 4.04144 16.4136ZM16.4139 28.7861C13.5737 28.7904 10.8192 27.8133 8.61652 26.0202C9.50312 24.751 10.6832 23.7147 12.0563 22.9995C13.4295 22.2843 14.9551 21.9114 16.5033 21.9125C18.0322 21.9113 19.5394 22.2749 20.8996 22.973C22.2598 23.6712 23.4338 24.6838 24.3241 25.9267C22.1043 27.7781 19.3044 28.7902 16.4139 28.7861Z" fill="black"/>
</g>
<defs>
<clipPath id="clip0_885_104">
<rect width="31" height="31" fill="white"/>
</clipPath>
</defs>
</svg>
