<svg width="29" height="28" viewBox="0 0 29 28" fill="none" xmlns="http://www.w3.org/2000/svg">
<rect width="29" height="28" stroke="black"/>
<path d="M24.4688 4.33957H19.0544V2.66132C19.0544 1.21363 17.835 0.0363159 16.3356 0.0363159H12.721C11.2216 0.0363159 10.0023 1.21363 10.0023 2.66132V4.33957H4.53125C3.5303 4.33957 2.71875 5.12313 2.71875 6.08957V26.2137C2.71875 27.1801 3.5303 27.9637 4.53125 27.9637H24.4688C25.4697 27.9637 26.2812 27.1801 26.2812 26.2137V6.08957C26.2812 5.12313 25.4697 4.33957 24.4688 4.33957ZM11.8148 2.66132C11.8148 2.17832 12.2208 1.78632 12.7211 1.78632H16.3356C16.8359 1.78632 17.2419 2.17832 17.2419 2.66132V4.33957H11.8148V2.66132ZM24.4688 26.2137H4.53128V6.08957H10.0023V7.88988C10.0023 7.88988 9.97829 8.76398 10.9032 8.76398C11.9227 8.76398 11.8148 7.88988 11.8148 7.88988V6.08957H17.2419V7.88988C17.2419 7.88988 17.1817 8.76838 18.1445 8.76838C19.0508 8.76838 19.0544 7.88988 19.0544 7.88988V6.08957H24.4688L24.4688 26.2137Z" fill="black"/>
</svg>
