<svg width="35" height="28" viewBox="0 0 35 28" fill="none" xmlns="http://www.w3.org/2000/svg">
<path d="M29.2396 12.4948H5.76042C4.99527 12.4948 4.375 12.9779 4.375 13.5738V13.6874C4.375 14.2834 4.99527 14.7665 5.76042 14.7665H29.2396C30.0047 14.7665 30.625 14.2834 30.625 13.6874V13.5738C30.625 12.9779 30.0047 12.4948 29.2396 12.4948Z" fill="#231F20"/>
<path d="M29.2396 18.1742H5.76042C4.99527 18.1742 4.375 18.6573 4.375 19.2533V19.3669C4.375 19.9628 4.99527 20.446 5.76042 20.446H29.2396C30.0047 20.446 30.625 19.9628 30.625 19.3669V19.2533C30.625 18.6573 30.0047 18.1742 29.2396 18.1742Z" fill="#231F20"/>
<path d="M29.2396 6.81531H5.76042C4.99527 6.81531 4.375 7.29843 4.375 7.8944V8.00799C4.375 8.60396 4.99527 9.08709 5.76042 9.08709H29.2396C30.0047 9.08709 30.625 8.60396 30.625 8.00799V7.8944C30.625 7.29843 30.0047 6.81531 29.2396 6.81531Z" fill="#231F20"/>
</svg>
